<svg width="156" height="160" viewBox="0 0 156 160" fill="none" xmlns="http://www.w3.org/2000/svg">
<path d="M0.5 81C0.5 38.1979 35.1979 3.5 78 3.5C120.802 3.5 155.5 38.1979 155.5 81C155.5 123.802 120.802 158.5 78 158.5C35.1979 158.5 0.5 123.802 0.5 81Z" fill="url(#paint0_radial_65_373)"/>
<path d="M0.5 81C0.5 38.1979 35.1979 3.5 78 3.5C120.802 3.5 155.5 38.1979 155.5 81C155.5 123.802 120.802 158.5 78 158.5C35.1979 158.5 0.5 123.802 0.5 81Z" stroke="url(#paint1_radial_65_373)"/>
<path d="M0.5 81C0.5 38.1979 35.1979 3.5 78 3.5C120.802 3.5 155.5 38.1979 155.5 81C155.5 123.802 120.802 158.5 78 158.5C35.1979 158.5 0.5 123.802 0.5 81Z" stroke="url(#paint2_radial_65_373)"/>
<path d="M0.5 81C0.5 38.1979 35.1979 3.5 78 3.5C120.802 3.5 155.5 38.1979 155.5 81C155.5 123.802 120.802 158.5 78 158.5C35.1979 158.5 0.5 123.802 0.5 81Z" stroke="url(#paint3_radial_65_373)"/>
<mask id="mask0_65_373" style="mask-type:alpha" maskUnits="userSpaceOnUse" x="0" y="4" width="156" height="156">
<path d="M8.07161 81.9999C8.07161 43.7855 39.6259 12.6624 78 12.6624C116.374 12.6624 147.928 43.7855 147.928 81.9999C147.928 120.214 116.374 151.337 78 151.337C39.6259 151.337 8.07161 120.214 8.07161 81.9999Z" fill="url(#paint4_radial_65_373)"/>
<path d="M8.07161 81.9999C8.07161 43.7855 39.6259 12.6624 78 12.6624C116.374 12.6624 147.928 43.7855 147.928 81.9999C147.928 120.214 116.374 151.337 78 151.337C39.6259 151.337 8.07161 120.214 8.07161 81.9999Z" stroke="url(#paint5_radial_65_373)" stroke-width="16.1432"/>
<path d="M8.07161 81.9999C8.07161 43.7855 39.6259 12.6624 78 12.6624C116.374 12.6624 147.928 43.7855 147.928 81.9999C147.928 120.214 116.374 151.337 78 151.337C39.6259 151.337 8.07161 120.214 8.07161 81.9999Z" stroke="url(#paint6_radial_65_373)" stroke-width="16.1432"/>
<path d="M8.07161 81.9999C8.07161 43.7855 39.6259 12.6624 78 12.6624C116.374 12.6624 147.928 43.7855 147.928 81.9999C147.928 120.214 116.374 151.337 78 151.337C39.6259 151.337 8.07161 120.214 8.07161 81.9999Z" stroke="url(#paint7_radial_65_373)" stroke-width="16.1432"/>
</mask>
<g mask="url(#mask0_65_373)">
<g style="mix-blend-mode:overlay" filter="url(#filter0_f_65_373)">
<path d="M-140.101 108.545V62.1818H-119.817C-113.599 62.1818 -108.709 63.2382 -105.147 65.3512C-101.565 67.4641 -99.7743 70.6335 -99.7743 74.8593C-99.7743 77.1534 -100.781 79.1858 -102.793 80.9566C-104.785 82.7275 -107.683 83.9147 -111.486 84.5184C-107.985 84.6794 -105.147 85.3233 -102.974 86.4502C-100.781 87.557 -99.1807 88.9455 -98.1746 90.6157C-97.1483 92.2658 -96.6351 93.9763 -96.6351 95.7471C-96.6351 98.5643 -97.3998 100.929 -98.9292 102.841C-100.459 104.732 -102.712 106.161 -105.691 107.127C-108.669 108.073 -112.331 108.545 -116.678 108.545H-140.101ZM-124.647 96.8338H-116.678C-115.33 96.8338 -114.273 96.5118 -113.508 95.8679C-112.724 95.2239 -112.331 94.3385 -112.331 93.2116C-112.331 92.0445 -112.724 91.1289 -113.508 90.4648C-114.273 89.8007 -115.33 89.4687 -116.678 89.4687H-124.647V96.8338ZM-124.647 81.017H-119.334C-118.469 81.017 -117.734 80.8862 -117.131 80.6246C-116.527 80.3429 -116.064 79.9505 -115.742 79.4474C-115.4 78.9443 -115.229 78.3406 -115.229 77.6363C-115.229 76.5698 -115.641 75.7447 -116.466 75.1612C-117.271 74.5575 -118.388 74.2556 -119.817 74.2556H-124.647V81.017ZM-80.9165 74.7386H-66.6693C-60.0488 74.7386 -54.8369 76.2679 -51.0337 79.3267C-47.2304 82.3652 -45.3187 86.5509 -45.2986 91.8835C-45.3187 95.3245 -46.1941 98.2927 -47.9246 100.788C-49.6351 103.283 -52.0901 105.205 -55.2897 106.553C-58.4692 107.881 -62.2624 108.545 -66.6693 108.545H-90.2134V62.1818H-74.5173V96.1093H-66.6693C-64.9589 96.1093 -63.5502 95.7069 -62.4435 94.9019C-61.3367 94.0769 -60.7733 93.0305 -60.7531 91.7627C-60.7733 90.4145 -61.3367 89.3178 -62.4435 88.4726C-63.5502 87.6073 -64.9589 87.1747 -66.6693 87.1747H-80.9165V74.7386ZM-41.9179 108.545V62.1818H-25.256V108.545H-41.9179ZM5.5022 109.391C0.471421 109.391 -3.83492 108.394 -7.41684 106.402C-10.9987 104.39 -13.7456 101.593 -15.6572 98.011C-17.5689 94.4089 -18.5248 90.2334 -18.5248 85.4843C-18.5248 80.7353 -17.5689 76.5698 -15.6572 72.9879C-13.7456 69.3858 -10.9987 66.5887 -7.41684 64.5965C-3.83492 62.5842 0.471421 61.5781 5.5022 61.5781C10.05 61.5781 13.9841 62.4031 17.3044 64.0532C20.6448 65.6832 23.2307 67.9974 25.0619 70.9957C26.8931 73.9739 27.8187 77.4753 27.8388 81.5H12.3843C12.1629 79.0651 11.4586 77.2137 10.2714 75.946C9.10423 74.6581 7.595 74.0142 5.74367 74.0142C4.29481 74.0142 3.02706 74.4367 1.94041 75.2819C0.853761 76.107 0.00859012 77.3647 -0.595104 79.055C-1.1988 80.7252 -1.50064 82.8281 -1.50064 85.3636C-1.50064 87.8991 -1.1988 90.012 -0.595104 91.7024C0.00859012 93.3726 0.853761 94.6303 1.94041 95.4755C3.02706 96.3005 4.29481 96.713 5.74367 96.713C6.97118 96.713 8.05783 96.4313 9.00362 95.8679C9.9494 95.2843 10.7141 94.4391 11.2977 93.3323C11.9013 92.2054 12.2636 90.8371 12.3843 89.2272H27.8388C27.7785 93.3122 26.8428 96.874 25.0317 99.9126C23.2206 102.931 20.6549 105.265 17.3346 106.915C14.0344 108.566 10.0903 109.391 5.5022 109.391ZM31.9213 74.6179V62.1818H76.8361V74.6179H62.106V108.545H46.41V74.6179H31.9213ZM83.0239 125.932V62.1818H99.5651V70.2713H99.9274C100.531 68.7017 101.416 67.2629 102.584 65.9549C103.751 64.6267 105.2 63.5703 106.93 62.7855C108.661 61.9805 110.673 61.5781 112.967 61.5781C116.026 61.5781 118.934 62.3931 121.69 64.023C124.467 65.653 126.721 68.2187 128.452 71.7201C130.203 75.2215 131.078 79.7694 131.078 85.3636C131.078 90.7163 130.243 95.1535 128.573 98.675C126.923 102.197 124.709 104.823 121.932 106.553C119.175 108.284 116.147 109.149 112.846 109.149C110.673 109.149 108.731 108.797 107.021 108.093C105.33 107.368 103.882 106.392 102.674 105.165C101.487 103.917 100.571 102.508 99.9274 100.939H99.6859V125.932H83.0239ZM99.3237 85.3636C99.3237 87.6174 99.6154 89.5693 100.199 91.2194C100.803 92.8494 101.648 94.1171 102.735 95.0227C103.841 95.9081 105.159 96.3508 106.689 96.3508C108.218 96.3508 109.516 95.9182 110.583 95.0529C111.669 94.1675 112.494 92.9098 113.058 91.2798C113.641 89.6297 113.933 87.6576 113.933 85.3636C113.933 83.0696 113.641 81.1076 113.058 79.4776C112.494 77.8275 111.669 76.5698 110.583 75.7045C109.516 74.8191 108.218 74.3764 106.689 74.3764C105.159 74.3764 103.841 74.8191 102.735 75.7045C101.648 76.5698 100.803 77.8275 100.199 79.4776C99.6154 81.1076 99.3237 83.0696 99.3237 85.3636ZM160.395 109.391C155.364 109.391 151.058 108.394 147.476 106.402C143.894 104.39 141.147 101.593 139.235 98.011C137.324 94.4089 136.368 90.2334 136.368 85.4843C136.368 80.7353 137.324 76.5698 139.235 72.9879C141.147 69.3858 143.894 66.5887 147.476 64.5965C151.058 62.5842 155.364 61.5781 160.395 61.5781C165.426 61.5781 169.732 62.5842 173.314 64.5965C176.896 66.5887 179.643 69.3858 181.554 72.9879C183.466 76.5698 184.422 80.7353 184.422 85.4843C184.422 90.2334 183.466 94.4089 181.554 98.011C179.643 101.593 176.896 104.39 173.314 106.402C169.732 108.394 165.426 109.391 160.395 109.391ZM160.516 97.0752C161.924 97.0752 163.142 96.6023 164.168 95.6566C165.194 94.7108 165.989 93.3625 166.552 91.6118C167.116 89.8611 167.398 87.7784 167.398 85.3636C167.398 82.9287 167.116 80.846 166.552 79.1154C165.989 77.3647 165.194 76.0164 164.168 75.0706C163.142 74.1248 161.924 73.6519 160.516 73.6519C159.026 73.6519 157.749 74.1248 156.682 75.0706C155.616 76.0164 154.801 77.3647 154.237 79.1154C153.674 80.846 153.392 82.9287 153.392 85.3636C153.392 87.7784 153.674 89.8611 154.237 91.6118C154.801 93.3625 155.616 94.7108 156.682 95.6566C157.749 96.6023 159.026 97.0752 160.516 97.0752ZM206.879 87.2954L219.798 62.1818H235.494V108.545H219.798V83.311L206.879 108.545H191.183V62.1818H206.879V87.2954ZM272.712 91.2798L282.854 62.1818H294.686L277.904 108.545H267.52L251.22 62.1818H263.053L272.712 91.2798ZM259.672 62.1818V108.545H243.976V62.1818H259.672ZM286.838 108.545V62.1818H302.293V108.545H286.838Z" fill="white"/>
</g>
</g>
<g filter="url(#filter1_f_65_373)">
<ellipse cx="77.5" cy="45" rx="49.5" ry="32" fill="url(#paint8_radial_65_373)" fill-opacity="0.2"/>
</g>
<defs>
<filter id="filter0_f_65_373" x="-150.101" y="51.5781" width="462.394" height="84.3537" filterUnits="userSpaceOnUse" color-interpolation-filters="sRGB">
<feFlood flood-opacity="0" result="BackgroundImageFix"/>
<feBlend mode="normal" in="SourceGraphic" in2="BackgroundImageFix" result="shape"/>
<feGaussianBlur stdDeviation="5" result="effect1_foregroundBlur_65_373"/>
</filter>
<filter id="filter1_f_65_373" x="15.0455" y="0.0454655" width="124.909" height="89.9091" filterUnits="userSpaceOnUse" color-interpolation-filters="sRGB">
<feFlood flood-opacity="0" result="BackgroundImageFix"/>
<feBlend mode="normal" in="SourceGraphic" in2="BackgroundImageFix" result="shape"/>
<feGaussianBlur stdDeviation="6.47727" result="effect1_foregroundBlur_65_373"/>
</filter>
<radialGradient id="paint0_radial_65_373" cx="0" cy="0" r="1" gradientUnits="userSpaceOnUse" gradientTransform="translate(13.0495 3) rotate(48.0195) scale(233.227 169.41)">
<stop stop-color="white" stop-opacity="0.36"/>
<stop offset="1" stop-color="white" stop-opacity="0"/>
</radialGradient>
<radialGradient id="paint1_radial_65_373" cx="0" cy="0" r="1" gradientUnits="userSpaceOnUse" gradientTransform="translate(-83.0633 18.9592) rotate(35.1112) scale(179.85 106.243)">
<stop stop-color="white"/>
<stop offset="1" stop-color="white" stop-opacity="0.06"/>
</radialGradient>
<radialGradient id="paint2_radial_65_373" cx="0" cy="0" r="1" gradientUnits="userSpaceOnUse" gradientTransform="translate(201.671 107.404) rotate(161.34) scale(130.378 88.3053)">
<stop stop-color="#8470FF"/>
<stop offset="1" stop-color="#865CFF" stop-opacity="0"/>
</radialGradient>
<radialGradient id="paint3_radial_65_373" cx="0" cy="0" r="1" gradientUnits="userSpaceOnUse" gradientTransform="translate(79.6984 -32.6533) rotate(47.2897) scale(87.1768 62.6469)">
<stop/>
<stop offset="1" stop-color="white" stop-opacity="0"/>
</radialGradient>
<radialGradient id="paint4_radial_65_373" cx="0" cy="0" r="1" gradientUnits="userSpaceOnUse" gradientTransform="translate(13.0495 4.59082) rotate(47.8028) scale(232.252 168.832)">
<stop stop-color="white" stop-opacity="0.36"/>
<stop offset="1" stop-color="white" stop-opacity="0"/>
</radialGradient>
<radialGradient id="paint5_radial_65_373" cx="0" cy="0" r="1" gradientUnits="userSpaceOnUse" gradientTransform="translate(-83.0633 20.4291) rotate(34.9065) scale(179.401 105.703)">
<stop stop-color="white"/>
<stop offset="1" stop-color="white" stop-opacity="0.06"/>
</radialGradient>
<radialGradient id="paint6_radial_65_373" cx="0" cy="0" r="1" gradientUnits="userSpaceOnUse" gradientTransform="translate(174.439 77.6994) rotate(143.25) scale(120.177 80.9328)">
<stop stop-color="#F9B016"/>
<stop offset="1" stop-color="#F9B016" stop-opacity="0"/>
</radialGradient>
<radialGradient id="paint7_radial_65_373" cx="0" cy="0" r="1" gradientUnits="userSpaceOnUse" gradientTransform="translate(79.6984 -30.7924) rotate(47.0725) scale(86.8209 62.4272)">
<stop/>
<stop offset="1" stop-color="white" stop-opacity="0"/>
</radialGradient>
<radialGradient id="paint8_radial_65_373" cx="0" cy="0" r="1" gradientUnits="userSpaceOnUse" gradientTransform="translate(77.5 13) rotate(90) scale(47.4245 73.3687)">
<stop stop-color="white"/>
<stop offset="1" stop-color="white" stop-opacity="0"/>
</radialGradient>
</defs>
</svg>
