<svg width="57" height="57" viewBox="0 0 57 57" fill="none" xmlns="http://www.w3.org/2000/svg">
<g clip-path="url(#clip0_1_4)">
<mask id="mask0_1_4" style="mask-type:luminance" maskUnits="userSpaceOnUse" x="0" y="0" width="58" height="57">
<path d="M45.6024 57H11.4016C5.10358 57 0 51.8964 0 45.6024V11.4016C0 5.10358 5.10358 0 11.4016 0H45.6024C51.9004 0 57.004 5.10358 57.004 11.4016V45.6024C57 51.8964 51.8964 57 45.6024 57Z" fill="white"/>
</mask>
<g mask="url(#mask0_1_4)">
<path d="M57 0H0V57H57V0Z" fill="#005BFF"/>
</g>
<mask id="mask1_1_4" style="mask-type:luminance" maskUnits="userSpaceOnUse" x="0" y="0" width="58" height="57">
<path d="M45.6024 57H11.4016C5.10358 57 0 51.8964 0 45.6024V11.4016C0 5.10358 5.10358 0 11.4016 0H45.6024C51.9004 0 57.004 5.10358 57.004 11.4016V45.6024C57 51.8964 51.8964 57 45.6024 57Z" fill="white"/>
</mask>
<g mask="url(#mask1_1_4)">
<path d="M50.9674 -10.1187C47.7782 -4.24696 45.6466 -1.2025 39.4612 5.73498C38.5161 7.08226 37.382 8.20433 36.1674 9.26606C30.5129 14.2088 24.8704 19.1957 19.1997 24.1143C17.5227 25.5702 15.7612 26.8973 14.0238 28.2768C12.9902 29.0972 11.7515 29.5477 10.541 29.9619C6.49912 31.3413 2.48141 32.6444 -1.54837 34.056C-3.35814 34.6914 -5.13977 35.4717 -6.91738 36.2076C-8.16009 36.7224 -9.12531 37.6716 -10.0583 38.6408C-12.3065 40.9855 -13.517 43.1612 -15.4595 46.9054C-15.4636 46.7768 -15.9904 35.2263 -15.9904 35.2263C-13.5532 32.0934 -10.6053 29.5999 -7.68151 27.2995C-6.39455 26.286 -5.00705 25.4736 -3.6276 24.6049C-1.19043 23.0727 1.00543 21.1463 3.08467 19.1153C5.05934 17.1929 6.67607 14.9407 8.26064 12.6604C10.7702 9.04487 13.32 5.44944 16.0306 1.99477C17.39 0.261406 18.9786 -1.24272 20.5591 -2.73881C22.586 -4.65717 26.8772 -9.02879 26.8772 -9.02879C26.8933 -9.02879 34.3416 -9.36662 34.3416 -9.36662C34.1204 -9.10923 33.8952 -8.71912 33.8107 -8.57836C32.9098 -7.04206 31.9647 -5.55 31.1282 -3.98152C30.5973 -2.98413 30.2515 -1.84196 29.7769 -0.808375C28.8278 1.24271 27.6856 3.13694 26.0005 4.60085C25.4455 5.08346 24.794 5.50977 24.1465 5.8315C22.7992 6.49911 21.6168 7.38791 20.4988 8.39737C18.8056 9.92563 17.2854 11.6349 15.7732 13.3602C13.3924 16.0708 11.1402 18.882 8.98455 21.7938C8.77542 22.0753 8.53813 22.3407 8.35314 22.6423C8.26466 22.7871 8.23248 22.9761 8.16814 23.141L8.22444 23.2456C8.44161 23.1692 8.69096 23.1169 8.884 22.9963C9.60792 22.5539 10.364 22.1557 11.0397 21.645C13.5975 19.7105 16.1674 17.7519 18.6649 15.733C19.9518 14.6914 21.0819 13.4487 22.3287 12.3467C23.0968 11.6711 23.9695 11.1241 24.7698 10.4887C26.0849 9.44704 27.388 8.42552 28.6508 7.3115C30.5732 5.62237 32.4916 3.87694 34.3456 2.09129C38.2064 -1.64087 37.4463 -5.76315 41.1544 -9.67629L50.9674 -10.1187Z" fill="#F91155"/>
<path d="M63.3061 48.8359C62.7109 49.4472 62.4092 49.9258 61.7778 50.4969C61.2671 50.9594 60.6397 51.3213 60.0967 51.7516C58.0979 53.3362 56.2479 55.2988 54.032 56.5335C52.3589 57.4665 50.6175 58.1221 48.7394 58.3392C48.4056 58.3795 48.0396 58.3352 47.7098 58.2548C47.2795 58.1502 47.1146 57.7601 47.1628 57.3016C47.2393 56.5938 47.5972 56.0589 48.0275 55.5482C48.4981 54.9891 48.9726 54.3577 49.5477 53.9395C50.887 52.9742 51.9326 51.7557 52.8456 50.3762C53.5011 49.3828 54.0963 48.3774 54.7639 47.3921C55.5683 46.1976 56.622 45.2485 57.6354 44.2632C60.0445 41.9306 62.3409 39.413 64.8866 37.2533C64.8826 37.3176 63.3624 48.4136 63.3061 48.8359Z" fill="#F91155"/>
<path d="M52.19 -10.1951C52.19 -10.1951 51.9809 -9.66423 51.7919 -9.29021C49.785 -4.80196 47.9994 -0.643488 45.4375 3.52303C43.2336 7.10639 40.9573 10.6133 38.3352 13.875C37.4182 15.0171 36.4892 16.1875 35.3108 17.0441C33.4648 18.3873 31.6229 19.6823 29.7608 20.9974C27.1226 22.8595 24.4602 24.7055 22.023 26.8611C21.0618 27.7097 20.1449 28.6106 19.3848 29.6763C18.8016 30.4928 18.2225 31.3253 17.5428 32.0492C14.7799 35.0092 11.7153 37.6193 8.62662 40.1851C5.44141 42.8274 2.23207 45.4375 -0.981293 48.0396C-2.98009 49.6603 -5.01911 51.2167 -7.21498 52.5359C-7.65334 52.7973 -8.144 52.9943 -8.61454 53.1834C-8.68693 53.2115 -13.2074 55.0132 -13.5733 55.347C-13.5452 55.7251 -13.1551 61.1987 -13.143 61.2711C-13.0787 61.2349 -11.7877 60.1973 -11.5303 60.0082C-9.6803 58.6087 -8.71106 57.5711 -6.66802 56.5415C-4.34748 55.3712 -2.0189 54.2893 0.2574 53.0346C5.46956 50.1429 10.6294 47.0583 15.6566 43.8288C17.9852 42.3327 20.2896 40.8326 22.5539 39.228C25.2685 37.3136 27.6293 34.989 29.9338 32.572C32.753 29.612 35.5199 26.5917 38.2668 23.5512C40.1409 21.476 41.9708 19.3204 43.7967 17.1929C45.0193 15.7692 46.2419 14.3576 47.4122 12.8856C49.3708 10.4122 51.0237 7.73378 52.7329 5.06737C53.7866 3.42248 54.8645 1.77357 56.0509 0.23727C59.0792 -3.68794 61.818 -7.47641 65.5542 -11.1643L52.19 -10.1951Z" fill="#F91155"/>
<path d="M10.4284 3.01629C7.8826 5.71085 5.39717 8.40943 2.90772 11.1603C1.55239 12.6644 0.329786 14.2852 -1.00945 15.8134C-3.40238 18.5442 -5.87977 21.2428 -8.70704 23.4748C-11.5745 25.7351 -14.6592 28.0194 -17.583 30.2072C-17.591 30.0423 -17.9369 22.3769 -17.945 22.204C-16.7063 20.1046 -15.4595 17.7278 -14.5386 15.4475C-13.9956 14.1002 -13.517 12.6845 -12.9701 11.3373C-11.9244 8.74324 -10.553 6.37042 -8.53411 4.4802C-7.40802 3.42249 -6.11303 2.67444 -4.78183 1.9626C-0.788255 -0.176964 3.2013 -2.35272 7.20293 -4.47217C9.58781 -5.73902 11.3936 -7.94695 13.5211 -9.61597L21.9627 -9.99803C18.13 -5.63445 14.4219 -1.21055 10.4284 3.01629Z" fill="#F91155"/>
<path d="M28.1642 65.3491C28.8197 64.7097 29.4351 64.1305 30.0383 63.5152C32.8576 60.6356 36.0508 58.2709 39.1918 55.8216C39.8674 55.2948 40.531 54.7317 41.1705 54.1526C41.3957 53.9395 41.5646 53.6821 41.6933 53.3965C41.7778 53.2155 41.8461 52.922 41.7496 52.7973C41.6249 52.6364 41.3233 52.4755 41.1343 52.5198C40.6758 52.6163 40.1852 52.741 39.791 52.9943C37.5228 54.4542 35.2867 55.9503 33.0426 57.4424C32.2784 57.9531 31.5183 58.5403 30.7582 59.0511C29.3667 59.9761 28.1441 61.1464 27.1145 62.4977C26.459 63.3624 25.8356 63.9978 25.1318 64.8182C25.0474 64.9188 24.8181 65.14 24.6613 65.3049C24.1384 65.3008 16.3403 65.2124 16.2116 65.2124C17.1205 64.6212 18.1501 63.8812 18.5241 63.6037C22.5901 60.5592 25.8839 58.7092 30.2273 56.1595C34.0802 53.8952 37.8807 51.5345 41.6933 49.2019C43.0205 48.3895 44.3758 47.5731 45.3852 46.2982C46.0448 45.4657 46.7325 44.6653 47.372 43.8127C49.4351 41.0619 51.4742 38.2346 53.5453 35.4877C54.8645 33.7383 56.1836 32.009 57.7762 30.5209C58.9264 29.4431 60.1571 28.4658 61.3153 27.4C63.6077 25.2927 63.0085 22.5016 67.2434 16.0065C69.6001 12.3909 71.1605 11.1884 72.4354 9.80899C73.2518 8.92421 75.6327 7.57291 76.5899 6.85704C76.5818 7.44019 76.5617 9.44301 76.5577 9.85323C74.8082 11.3533 71.9729 15.5199 71.6512 17.8605C70.4969 26.2136 62.8838 31.2649 59.0028 36.2599C57.185 38.6086 55.1138 40.6476 52.9019 42.57C51.45 43.8328 50.0464 45.1439 48.8882 46.7204C48.4217 47.3559 48.108 48.1079 47.6817 48.7796C46.2821 50.9674 44.8584 53.1552 43.4347 55.3269C42.373 56.9356 41.3153 58.5765 40.1369 60.0887C38.7333 61.8904 37.6595 63.117 36.1674 64.8424C36.095 64.9268 35.8377 65.2445 35.6446 65.4376L28.1642 65.3491Z" fill="#F91155"/>
<path d="M-15.6083 68.4941C-11.297 65.4416 -6.34227 62.8838 -1.80173 60.1651C0.285544 58.9143 2.42913 57.7521 4.57271 56.6099C6.92944 55.3551 9.2902 54.0601 11.7193 52.9863C15.6767 51.2369 19.244 48.9002 22.5659 46.073C23.6679 45.1359 24.6532 44.0299 25.6506 42.9601C27.7459 40.712 29.8654 38.4317 31.9124 36.1353C33.9313 33.871 35.8698 31.5505 37.8646 29.2621C38.8982 28.0757 40.0243 26.9697 41.3072 26.089C41.5887 25.904 41.9145 25.7994 42.2282 25.6908C42.5539 25.5742 42.7751 25.715 42.6987 26.0648C42.57 26.656 42.3931 27.2995 42.1156 27.8223C41.1705 29.5678 40.2052 31.2569 39.1717 32.95C37.8847 35.0615 36.4409 37.1085 34.8523 38.9746C33.4206 40.6597 31.8602 42.1397 30.0946 43.4267C28.8881 44.2954 27.7258 45.2887 26.644 46.3263C24.9548 47.9672 23.0164 49.234 21.106 50.5733C17.0481 53.4207 12.8253 56.0388 8.63466 58.661C4.26304 61.3957 0.856629 64.2592 -3.55119 68.2689L-15.6083 68.4941Z" fill="#F91155"/>
<path d="M65.5542 7.32758C68.4981 5.98433 73.2599 1.91434 75.3391 -0.156856L74.5106 -12.5036C73.6057 -11.7596 72.17 -10.734 71.3455 -10.0262C70.4768 -9.29021 69.3709 -8.28075 68.5745 -7.46434C65.3129 -4.11424 64.3075 -2.51761 61.2711 1.05368C58.5001 4.31129 55.524 7.6453 53.6097 11.5625C52.9622 12.8937 52.4112 14.2369 51.7597 15.5641C50.0143 19.1394 48.0155 22.6021 46.0609 26.0528C44.6171 28.5985 43.0888 31.0437 41.2791 33.312C39.6865 35.3068 38.0979 37.3056 36.461 39.2601C35.3591 40.5793 34.2531 41.8823 33.0506 43.0928C31.3494 44.8101 29.3948 46.1896 27.4081 47.5127C25.349 48.8922 23.2697 50.2234 21.1704 51.5345C18.6206 53.1271 16.461 55.2626 14.3335 57.4022C13.4447 58.299 12.5679 59.224 11.6188 60.0404C9.26205 62.0674 7.13054 63.3061 5.02315 65.6186C4.83011 65.8277 4.35152 66.3264 4.25098 66.435L14.43 65.7513C14.8442 65.4698 15.5038 64.6292 15.8255 64.2391C16.658 62.9763 17.1969 62.4132 17.9369 61.0941C18.7574 59.6302 19.8674 58.4599 21.2709 57.6475C22.3769 57.008 23.4427 56.3646 24.5527 55.7331C26.0729 54.8685 27.6896 54.1204 29.1294 53.1311C32.0492 51.1242 34.9247 49.0209 37.748 46.8733C40.3943 44.8544 42.9481 42.7108 45.5381 40.6155C46.455 39.8755 47.2352 39.059 47.8425 38.0013C49.2944 35.4676 50.4365 32.757 51.438 30.0021C52.2383 27.8022 52.9541 25.5621 53.7303 23.3461C55.1621 19.2641 57.1287 15.4595 59.3608 11.8239C61.0982 9.01269 62.6143 8.67084 65.5542 7.32758Z" fill="#F91155"/>
</g>
<mask id="mask2_1_4" style="mask-type:luminance" maskUnits="userSpaceOnUse" x="0" y="0" width="58" height="57">
<path d="M45.6024 57H11.4016C5.10358 57 0 51.8964 0 45.6024V11.4016C0 5.10358 5.10358 0 11.4016 0H45.6024C51.9004 0 57.004 5.10358 57.004 11.4016V45.6024C57 51.8964 51.8964 57 45.6024 57Z" fill="white"/>
</mask>
<g mask="url(#mask2_1_4)">
<mask id="mask3_1_4" style="mask-type:luminance" maskUnits="userSpaceOnUse" x="0" y="0" width="57" height="57">
<path d="M57 0H0V57H57V0Z" fill="white"/>
</mask>
<g mask="url(#mask3_1_4)">
<path d="M6.06076 38.1059C3.91717 38.9907 1.52424 37.563 1.19044 35.1982C0.965221 33.5895 1.85 32.0009 3.31391 31.3977C5.4575 30.5129 7.85043 31.9406 8.18423 34.3054C8.40543 35.9141 7.52064 37.5026 6.06076 38.1059ZM3.58739 28.0435C-0.554993 28.7152 -2.98814 33.0747 -1.47597 37.1206C-0.357928 40.1128 2.72272 41.9547 5.78728 41.456C9.92966 40.7884 12.3628 36.4248 10.8506 32.379C9.7326 29.3868 6.65195 27.5489 3.58739 28.0435Z" fill="white"/>
<path d="M12.8454 25.6868C11.9124 25.9361 11.4097 26.9939 11.8681 27.9229C12.2019 28.6026 12.9982 28.9163 13.7221 28.7232L17.9168 27.6011L13.7342 38.0938C13.5975 38.4397 13.9071 38.7976 14.2651 38.7011L24.5004 35.9583C25.2243 35.7653 25.7552 35.0936 25.7029 34.3375C25.6345 33.304 24.6693 32.6404 23.7403 32.8897L18.6327 34.2571L22.8113 23.7725C22.948 23.4266 22.6343 23.0646 22.2764 23.1612L12.8454 25.6868Z" fill="white"/>
<path d="M53.7223 14.6713C53.0627 15.0091 52.7571 15.7974 52.9501 16.5213L54.3135 21.6007L44.3758 17.2412C44.0299 17.0883 43.6639 17.4061 43.7645 17.7761L46.5757 28.2647C46.7687 28.9886 47.4283 29.5195 48.1683 29.4793C49.2019 29.423 49.8654 28.4457 49.6081 27.4966L48.2366 22.3729L58.1743 26.7325C58.5202 26.8853 58.8862 26.5676 58.7856 26.1976L55.9664 15.6687C55.709 14.7155 54.6473 14.2007 53.7223 14.6713Z" fill="white"/>
<path d="M32.387 20.1127C27.4081 21.4439 24.1626 25.4656 25.1358 29.0932C26.1091 32.7208 30.9311 34.5789 35.906 33.2436C40.8809 31.9084 44.1305 27.8907 43.1572 24.2631C42.1839 20.6355 37.3619 18.7775 32.387 20.1127ZM33.2074 23.1772C36.646 22.2563 39.7106 23.4145 40.153 25.0675C40.5954 26.7204 38.5242 29.2581 35.0856 30.1791C31.647 31.1001 28.5825 29.9418 28.1401 28.2889C27.6936 26.6319 29.7689 24.0982 33.2074 23.1772Z" fill="white"/>
</g>
</g>
</g>
<defs>
<clipPath id="clip0_1_4">
<rect width="57" height="57" fill="white"/>
</clipPath>
</defs>
</svg>
