<svg width="83" height="83" viewBox="0 0 83 83" fill="none" xmlns="http://www.w3.org/2000/svg">
<g clip-path="url(#clip0_1_4)">
<mask id="mask0_1_4" style="mask-type:luminance" maskUnits="userSpaceOnUse" x="0" y="0" width="84" height="83">
<path d="M66.4035 83H16.6023C7.43152 83 0 75.5685 0 66.4035V16.6023C0 7.43152 7.43152 0 16.6023 0H66.4035C75.5743 0 83.0059 7.43152 83.0059 16.6023V66.4035C83 75.5685 75.5685 83 66.4035 83Z" fill="white"/>
</mask>
<g mask="url(#mask0_1_4)">
<path d="M83 0H0V83H83V0Z" fill="#005BFF"/>
</g>
<mask id="mask1_1_4" style="mask-type:luminance" maskUnits="userSpaceOnUse" x="0" y="0" width="84" height="83">
<path d="M66.4035 83H16.6023C7.43152 83 0 75.5685 0 66.4035V16.6023C0 7.43152 7.43152 0 16.6023 0H66.4035C75.5743 0 83.0059 7.43152 83.0059 16.6023V66.4035C83 75.5685 75.5685 83 66.4035 83Z" fill="white"/>
</mask>
<g mask="url(#mask1_1_4)">
<path d="M74.2157 -14.7342C69.5717 -6.18416 66.4679 -1.75101 57.4611 8.35094C56.0849 10.3128 54.4334 11.9466 52.6649 13.4927C44.431 20.69 36.2148 27.9517 27.9575 35.1138C25.5155 37.2337 22.9505 39.1663 20.4206 41.175C18.9155 42.3696 17.1118 43.0255 15.3491 43.6287C9.46363 45.6374 3.61328 47.5348 -2.25464 49.5903C-4.88993 50.5156 -7.48423 51.6517 -10.0727 52.7234C-11.8822 53.473 -13.2877 54.8551 -14.6464 56.2664C-17.92 59.6806 -19.6827 62.8488 -22.5113 68.3009C-22.5171 68.1135 -23.2843 51.2945 -23.2843 51.2945C-19.7354 46.7325 -15.4428 43.1017 -11.1854 39.7519C-9.31137 38.2762 -7.29097 37.0932 -5.2823 35.8283C-1.73343 33.597 1.46405 30.7919 4.49171 27.8345C7.36711 25.0353 9.7213 21.7558 12.0286 18.4353C15.6829 13.1706 19.3958 7.93515 23.3428 2.90467C25.3222 0.380645 27.6354 -1.80958 29.9369 -3.98809C32.8885 -6.7815 39.137 -13.1472 39.137 -13.1472C39.1604 -13.1472 50.0061 -13.6391 50.0061 -13.6391C49.684 -13.2643 49.3561 -12.6963 49.2331 -12.4913C47.9213 -10.2542 46.5451 -8.08157 45.327 -5.79765C44.554 -4.34531 44.0504 -2.68215 43.3593 -1.17711C41.9773 1.80956 40.3141 4.56783 37.8604 6.69949C37.0522 7.40223 36.1035 8.02299 35.1607 8.49149C33.1988 9.46362 31.4771 10.7578 29.8491 12.2277C27.3836 14.4531 25.17 16.942 22.968 19.4543C19.5012 23.4014 16.2217 27.4949 13.0828 31.7348C12.7782 32.1447 12.4327 32.5312 12.1633 32.9704C12.0345 33.1812 11.9877 33.4565 11.894 33.6966L11.9759 33.8489C12.2922 33.7376 12.6553 33.6615 12.9364 33.4858C13.9905 32.8416 15.0914 32.2618 16.0753 31.5181C19.7998 28.7013 23.5419 25.8493 27.1786 22.9095C29.0526 21.3927 30.6982 19.5831 32.5137 17.9785C33.6322 16.9947 34.903 16.1983 36.0684 15.273C37.9833 13.7562 39.8808 12.2687 41.7196 10.6466C44.5189 8.18697 47.3123 5.64537 50.012 3.04522C55.6339 -2.38934 54.5271 -8.39195 59.9265 -14.09L74.2157 -14.7342Z" fill="#F91155"/>
<path d="M92.1825 71.1119C91.3158 72.0021 90.8766 72.6989 89.9572 73.5305C89.2134 74.204 88.2999 74.731 87.5093 75.3577C84.5987 77.665 81.9049 80.5228 78.6781 82.3207C76.2419 83.6793 73.7062 84.6339 70.9713 84.9501C70.4853 85.0087 69.9524 84.9443 69.4722 84.8271C68.8455 84.6749 68.6054 84.1068 68.6757 83.4392C68.787 82.4085 69.3082 81.6296 69.9348 80.8859C70.62 80.0719 71.311 79.1525 72.1484 78.5434C74.0986 77.1379 75.6212 75.3635 76.9505 73.3548C77.9051 71.9083 78.7718 70.4443 79.7439 69.0095C80.9152 67.2702 82.4495 65.8882 83.9253 64.4534C87.4331 61.0568 90.777 57.3908 94.484 54.246C94.4782 54.3397 92.2645 70.497 92.1825 71.1119Z" fill="#F91155"/>
<path d="M75.996 -14.8455C75.996 -14.8455 75.6914 -14.0725 75.4162 -13.5278C72.494 -6.99232 69.8938 -0.937003 66.1634 5.13002C62.9542 10.3479 59.6396 15.4545 55.8213 20.2039C54.4861 21.8671 53.1333 23.5712 51.4175 24.8186C48.7295 26.7746 46.0473 28.6603 43.3359 30.5752C39.4942 33.2867 35.6174 35.9747 32.0686 39.1136C30.6689 40.3492 29.3337 41.661 28.2269 43.2129C27.3777 44.4017 26.5345 45.614 25.5448 46.6681C21.5215 50.9783 17.0591 54.7789 12.5615 58.5152C7.92343 62.3627 3.25018 66.1634 -1.42893 69.9524C-4.33946 72.3124 -7.30856 74.5788 -10.506 76.4996C-11.1444 76.8802 -11.8588 77.1672 -12.544 77.4424C-12.6494 77.4834 -19.2318 80.107 -19.7647 80.5931C-19.7237 81.1436 -19.1557 89.1139 -19.1381 89.2193C-19.0444 89.1666 -17.1646 87.6557 -16.7898 87.3804C-14.0959 85.3425 -12.6846 83.8316 -9.7096 82.3324C-6.33057 80.6282 -2.93983 79.0529 0.374781 77.2258C7.96442 73.0151 15.4779 68.5234 22.7982 63.8209C26.1889 61.6424 29.5445 59.458 32.8416 57.1214C36.7945 54.3339 40.2321 50.949 43.5877 47.4294C47.6929 43.1192 51.722 38.7212 55.7218 34.2939C58.4508 31.2721 61.1153 28.1332 63.7741 25.0353C65.5543 22.9622 67.3346 20.9066 69.0388 18.7633C71.8908 15.1617 74.2977 11.2615 76.7865 7.37881C78.3209 4.98362 79.8903 2.58257 81.6179 0.345505C86.0276 -5.37015 90.0157 -10.8867 95.4561 -16.2568L75.996 -14.8455Z" fill="#F91155"/>
<path d="M15.1851 4.39215C11.4781 8.3158 7.85901 12.2453 4.23402 16.251C2.26048 18.4412 0.480195 20.8012 -1.46992 23.0266C-4.95436 27.003 -8.56179 30.9325 -12.6787 34.1827C-16.8542 37.4739 -21.3459 40.8002 -25.6033 43.9859C-25.6151 43.7458 -26.1187 32.5839 -26.1304 32.3321C-24.3267 29.2752 -22.5113 25.8141 -21.1702 22.4937C-20.3796 20.5318 -19.6827 18.4705 -18.8863 16.5086C-17.3637 12.7314 -15.3667 9.27622 -12.4269 6.52381C-10.7871 4.98362 -8.90144 3.89437 -6.96304 2.85782C-1.14783 -0.25768 4.66153 -3.42589 10.4885 -6.51211C13.9612 -8.35681 16.5906 -11.5719 19.6885 -14.0022L31.9807 -14.5585C26.3998 -8.20455 21.0003 -1.76272 15.1851 4.39215Z" fill="#F91155"/>
<path d="M41.011 95.1575C41.9656 94.2264 42.8616 93.3831 43.74 92.4871C47.8452 88.294 52.495 84.8506 57.0687 81.2841C58.0526 80.517 59.0188 79.6971 59.95 78.8538C60.2779 78.5434 60.5239 78.1686 60.7113 77.7528C60.8342 77.4893 60.9338 77.0618 60.7933 76.8803C60.6117 76.646 60.1725 76.4118 59.8973 76.4762C59.2296 76.6167 58.5152 76.7983 57.9413 77.1672C54.6384 79.293 51.3823 81.4715 48.1146 83.6442C47.0019 84.3879 45.8951 85.2429 44.7882 85.9867C42.762 87.3336 40.9817 89.0378 39.4825 91.0054C38.528 92.2645 37.6203 93.1898 36.5954 94.3845C36.4724 94.5309 36.1386 94.853 35.9102 95.0931C35.1489 95.0872 23.7938 94.9584 23.6064 94.9584C24.9299 94.0975 26.429 93.02 26.9737 92.6159C32.8943 88.1827 37.6905 85.4889 44.0152 81.7761C49.6255 78.479 55.1596 75.0414 60.7113 71.6448C62.6438 70.4619 64.6174 69.2731 66.0873 67.4166C67.0477 66.2044 68.0491 65.039 68.9802 63.7975C71.9845 59.7919 74.9536 55.6749 77.9695 51.6752C79.8903 49.1277 81.8112 46.6095 84.1302 44.4427C85.8051 42.8733 87.5971 41.4502 89.2837 39.8983C92.6217 36.8297 91.7492 32.7655 97.9157 23.3077C101.347 18.043 103.62 16.292 105.476 14.2833C106.665 12.9949 110.132 11.0272 111.526 9.98483C111.514 10.834 111.485 13.7504 111.479 14.3477C108.931 16.5321 104.803 22.5991 104.334 26.0074C102.653 38.1708 91.5676 45.5261 85.9164 52.7995C83.2694 56.2196 80.2534 59.1887 77.0325 61.9879C74.9184 63.8268 72.8746 65.7359 71.188 68.0315C70.5087 68.9568 70.0519 70.0519 69.4312 71.0299C67.3932 74.2157 65.3201 77.4015 63.247 80.5638C61.701 82.9063 60.1608 85.2956 58.4449 87.4976C56.4011 90.1211 54.8375 91.9073 52.6648 94.4196C52.5594 94.5426 52.1846 95.0052 51.9035 95.2863L41.011 95.1575Z" fill="#F91155"/>
<path d="M-22.7279 99.737C-16.4501 95.2922 -9.23524 91.5676 -2.62358 87.6088C0.415787 85.7876 3.53714 84.0951 6.6585 82.432C10.0902 80.6048 13.5278 78.7191 17.065 77.1555C22.8275 74.6081 28.0219 71.2056 32.8592 67.0887C34.4638 65.7242 35.8985 64.1137 37.3509 62.556C40.402 59.2824 43.4882 55.9619 46.469 52.618C49.4088 49.321 52.2315 45.9419 55.1362 42.6098C56.6412 40.8822 58.2809 39.2717 60.1491 37.9892C60.559 37.7198 61.0334 37.5676 61.4901 37.4095C61.9645 37.2396 62.2866 37.4446 62.1753 37.9541C61.9879 38.8149 61.7302 39.7519 61.3262 40.5132C59.95 43.0548 58.5445 45.5144 57.0394 47.9799C55.1654 51.0544 53.0631 54.0352 50.7499 56.7525C48.6651 59.2062 46.3929 61.3613 43.822 63.2353C42.0651 64.5003 40.3727 65.9467 38.7974 67.4576C36.3377 69.847 33.5151 71.6917 30.7334 73.6418C24.8244 77.788 18.6754 81.6004 12.5733 85.4186C6.20757 89.4008 1.24737 93.5705 -5.17103 99.4091L-22.7279 99.737Z" fill="#F91155"/>
<path d="M95.4561 10.67C99.7429 8.71403 106.677 2.78756 109.704 -0.22839L108.498 -18.2069C107.18 -17.1235 105.09 -15.6302 103.889 -14.5995C102.624 -13.5278 101.014 -12.0579 99.8541 -10.8691C95.1048 -5.9909 93.6407 -3.66598 89.2193 1.53433C85.1844 6.27785 80.8508 11.1326 78.0632 16.8366C77.1204 18.775 76.3181 20.731 75.3694 22.6635C72.8278 27.8697 69.9172 32.9119 67.0711 37.9365C64.9687 41.6435 62.7434 45.204 60.1081 48.5069C57.789 51.4116 55.4758 54.3222 53.0923 57.1683C51.4877 59.0891 49.8773 60.9865 48.1263 62.7492C45.6491 65.2498 42.803 67.2585 39.91 69.1852C36.9117 71.1939 33.884 73.1323 30.8271 75.0414C27.1142 77.3605 23.9694 80.4701 20.8715 83.5856C19.5773 84.8916 18.3006 86.2385 16.9186 87.4273C13.4868 90.3788 10.383 92.1825 7.31439 95.5498C7.0333 95.8544 6.33641 96.5805 6.19 96.7387L21.0121 95.7431C21.6152 95.3332 22.5757 94.1092 23.0442 93.5412C24.2564 91.7023 25.0411 90.8824 26.1187 88.9616C27.3133 86.83 28.9296 85.1258 30.9735 83.9428C32.5839 83.0117 34.1358 82.0747 35.7521 81.1553C37.9658 79.8962 40.32 78.807 42.4165 77.3663C46.6681 74.4441 50.8553 71.3813 54.9663 68.2541C58.8197 65.3143 62.5384 62.1929 66.3098 59.1418C67.645 58.0643 68.7811 56.8755 69.6654 55.3353C71.7795 51.6459 73.4427 47.6988 74.9009 43.6873C76.0662 40.4839 77.1086 37.222 78.2389 33.9953C80.3237 28.0512 83.1874 22.5113 86.4376 17.2172C88.9675 13.1238 91.1753 12.626 95.4561 10.67Z" fill="#F91155"/>
</g>
<mask id="mask2_1_4" style="mask-type:luminance" maskUnits="userSpaceOnUse" x="0" y="0" width="84" height="83">
<path d="M66.4035 83H16.6023C7.43152 83 0 75.5685 0 66.4035V16.6023C0 7.43152 7.43152 0 16.6023 0H66.4035C75.5743 0 83.0059 7.43152 83.0059 16.6023V66.4035C83 75.5685 75.5685 83 66.4035 83Z" fill="white"/>
</mask>
<g mask="url(#mask2_1_4)">
<mask id="mask3_1_4" style="mask-type:luminance" maskUnits="userSpaceOnUse" x="0" y="0" width="83" height="83">
<path d="M83 0H0V83H83V0Z" fill="white"/>
</mask>
<g mask="url(#mask3_1_4)">
<path d="M8.8253 55.4876C5.70394 56.7759 2.2195 54.697 1.73343 51.2535C1.40548 48.911 2.69385 46.5978 4.82551 45.7194C7.94687 44.431 11.4313 46.51 11.9174 49.9534C12.2395 52.2959 10.9511 54.6091 8.8253 55.4876ZM5.22373 40.8353C-0.808161 41.8133 -4.35117 48.1614 -2.14923 54.0528C-0.521207 58.4098 3.96465 61.0919 8.42707 60.3658C14.459 59.3936 18.002 53.0397 15.8 47.1483C14.172 42.7913 9.68616 40.115 5.22373 40.8353Z" fill="white"/>
<path d="M18.7047 37.4036C17.3461 37.7667 16.6141 39.3069 17.2817 40.6596C17.7677 41.6493 18.9273 42.1061 19.9814 41.825L26.0894 40.1911L19.9989 55.47C19.7998 55.9736 20.2508 56.4948 20.772 56.3543L35.676 52.3603C36.7301 52.0792 37.5031 51.1013 37.427 50.0003C37.3274 48.4952 35.922 47.529 34.5692 47.8921L27.1318 49.8832L33.2164 34.616C33.4155 34.1124 32.9587 33.5853 32.4375 33.7259L18.7047 37.4036Z" fill="white"/>
<path d="M78.2272 21.3634C77.2668 21.8554 76.8217 23.0032 77.1028 24.0573L79.088 31.4537L64.6174 25.1056C64.1137 24.883 63.5808 25.3457 63.7272 25.8844L67.8207 41.1574C68.1018 42.2115 69.0622 42.9845 70.1398 42.926C71.6448 42.844 72.6111 41.4209 72.2363 40.0389L70.2393 32.5781L84.71 38.9262C85.2136 39.1487 85.7465 38.6861 85.6001 38.1473L81.4949 22.8158C81.1201 21.4279 79.5741 20.6783 78.2272 21.3634Z" fill="white"/>
<path d="M47.16 29.2869C39.91 31.2253 35.1841 37.0815 36.6013 42.3638C38.0185 47.6461 45.0401 50.3517 52.2842 48.4074C59.5283 46.4631 64.2601 40.6128 62.8429 35.3305C61.4257 30.0482 54.4041 27.3426 47.16 29.2869ZM48.3547 33.7493C53.3617 32.4082 57.8242 34.0948 58.4684 36.5017C59.1125 38.9086 56.0966 42.6039 51.0895 43.945C46.0825 45.286 41.6201 43.5995 40.9759 41.1926C40.3258 38.7798 43.3476 35.0904 48.3547 33.7493Z" fill="white"/>
</g>
</g>
</g>
<defs>
<clipPath id="clip0_1_4">
<rect width="83" height="83" fill="white"/>
</clipPath>
</defs>
</svg>
